# xmcd
#
# Track frame offsets:
#	150
#	9995
#	11142
#	13642
#	15915
#	18207
#	19707
#	21000
#	22335
#	26740
#	30535
#	34207
#	36477
#	42662
#	50952
#	52535
#	57617
#	62260
#	65910
#	69927
#	75330
#	78710
#	82080
#	85937
#	94602
#	105302
#	118375
#	131377
#	137525
#	148822
#	158092
#	168405
#	182377
#	191152
#	200425
#
# Disc length: 2853 seconds
#
# Revision: 0
# Processed by: cddbd v1.4PL0 Copyright (c) Steve Scherf et al.
# Submitted via: dBpowerAMP V4.0
#
DISCID=cf0b2323
DTITLE=Tommy Flint - Merle Travis Guitar Style
DYEAR=1900
DGENRE=Country
TTITLE0=Introduction (Explanation of Style)
TTITLE1=The Travis Rhythm in Tablature
TTITLE2=Adding the Melody
TTITLE3=Take it Away
TTITLE4=Go Tell Aunt Rhody
TTITLE5=Travis Licks in Syncopation - Lick #1
TTITLE6=Travis Licks in Syncopation - Lick #2
TTITLE7=Travis Licks in Syncopation - Lick #3
TTITLE8=Maggie
TTITLE9=Going Down the Road Feeling Bad
TTITLE10=The Guitar Blues
TTITLE11=The Three Finger Roll
TTITLE12=My Old Kentucky Home
TTITLE13=Bicycle Built for Two
TTITLE14=Instruction
TTITLE15=Saturday's Song
TTITLE16=Kelly's Blues
TTITLE17=Drakesboro Coal Rag
TTITLE18=Honeysuckle Sweet
TTITLE19=Green River Blues
TTITLE20=My Memory of Merle
TTITLE21=Walkin' in Beech Creek
TTITLE22=Pickin' Like Amos
TTITLE23=Bluebell #1
TTITLE24=Bluebell #2
TTITLE25=Bugle Call Rag
TTITLE26=Cuddle Up A Little Closer
TTITLE27=I'm Thinking Tonight of my Blue Eyes
TTITLE28=Way Down Yonder in New Orleans
TTITLE29=Bar B Q Rag
TTITLE30=You Tell Me Your Dreams, I'll Tell You Mine
TTITLE31=Memphis Blues
TTITLE32=Merle's Buck Dance
TTITLE33=Dance of the Goldenrod (Instrumental Version)
TTITLE34=Dance of the Goldenrod (Vocal Version)
EXTD=These are the tracks on the CD accompanying the\ninstructional book, "Merle Travis Guitar Style",\nby Tommy Flint,\npublished by Mel Bay.
EXTT0=
EXTT1=
EXTT2=
EXTT3=
EXTT4=
EXTT5=
EXTT6=
EXTT7=
EXTT8=
EXTT9=
EXTT10=
EXTT11=
EXTT12=
EXTT13=
EXTT14=
EXTT15=
EXTT16=
EXTT17=
EXTT18=
EXTT19=
EXTT20=
EXTT21=
EXTT22=
EXTT23=
EXTT24=
EXTT25=
EXTT26=
EXTT27=
EXTT28=
EXTT29=
EXTT30=
EXTT31=
EXTT32=
EXTT33=
EXTT34=
PLAYORDER=
